<svg xmlns="http://www.w3.org/2000/svg" viewBox="0 0 245.05 243.85" version="1.0"><path style="fill-rule:evenodd;stroke:#000;stroke-width:.4;fill:#d5b807" d="M93.318 183.26c-.78-.3-1.262 2.14-.78 2.82 1.765 2.04 5.735 2.27 5.735 2.27l4.377.04s4.55-.07 6.21-2.38c.38-.47.54-3.14-.61-2.78-2.24 1.73-3.64 1.65-7.33 1.73s-6.47-.47-7.602-1.7z" transform="translate(-1313.126 -2443.676) scale(14.251)"/><path style="fill-rule:evenodd;fill:#af9705" d="M93.178 185.3c-.697-.26-.917.42-.492.81 1.677 1.84 5.511 2.18 5.511 2.18l4.493.01s4.75-.15 6.11-2.38c.28-.35.23-1.01-.39-.76-1.71 1.58-3.74 2.18-7.53 2.2-3.789.02-6.645-.88-7.702-2.06z" transform="translate(-1313.126 -2443.676) scale(14.251)"/><path style="fill-rule:evenodd;stroke:#000;stroke-width:.4;fill:#d5b807" d="M94.192 180.82c-.697-.26-1.173 2.03-.742 2.63 1.712 1.5 5.226 1.57 5.226 1.57l3.874.03s3.52.35 5.79-1.8c.34-.41.18-2.82-.85-2.5-2 1.5-3.19 1.5-6.48 1.57-3.3.07-5.807-.43-6.818-1.5z" transform="translate(-1313.126 -2443.676) scale(14.251)"/><path style="fill-rule:evenodd;stroke:#000;stroke-width:.4;fill:#d5b807" d="M94.871 178.63c-.621-.23-.951 1.81-.567 2.34 1.526 1.34 4.657 1.4 4.657 1.4l3.459.03s3.13.31 5.15-1.6c.3-.37.19-2.57-.72-2.28-1.79 1.34-2.91 1.35-5.85 1.4-2.934.06-5.228-.34-6.129-1.29z" transform="translate(-1313.126 -2443.676) scale(14.251)"/><path style="fill-rule:evenodd;stroke:#000;stroke-width:.4;fill:#d5b807" d="M95.632 176.66c-.562-.22-1.026 1.57-.679 2.04 1.379 1.21 4.21 1.27 4.21 1.27l3.127.02s2.83.28 4.66-1.44c.27-.34.03-2.17-.79-1.91-1.62 1.21-2.5 1.12-5.15 1.18-2.66.05-4.564-.31-5.378-1.16z" transform="translate(-1313.126 -2443.676) scale(14.251)"/><path style="fill-rule:evenodd;stroke:#000;stroke-width:.4;fill:#d5b807" d="M96.265 174.87c-.493-.19-.884 1.45-.579 1.86 1.212 1.05 3.699 1.1 3.699 1.1l2.745.02s2.49.24 4.09-1.25c.24-.29.15-1.88-.57-1.66-1.42 1.05-2.25.97-4.58 1.02-2.335.05-4.089-.35-4.805-1.09z" transform="translate(-1313.126 -2443.676) scale(14.251)"/><path style="fill-rule:evenodd;stroke:#000;stroke-width:.4;fill:#d5b807" d="M96.904 173.77c-.435-.14-.825 1.02-.556 1.33 1.068.77 3.463.84 3.463.84l2.219.02s2.19.15 3.6-.97c.21-.21 0-1.42-.64-1.26-1.25.78-1.87.78-3.93.82-2.055.03-3.525-.23-4.156-.78z" transform="translate(-1313.126 -2443.676) scale(14.251)"/><path style="fill-rule:evenodd;stroke:#000;stroke-width:.4;fill:#d5b807" d="M97.401 172.79c-.374-.1-.626.89-.395 1.12.916.58 2.797.61 2.797.61l2.077.01s1.88.13 3.1-.7c.18-.16.04-1.17-.51-1.05-1.07.58-1.65.69-3.42.72-1.764.02-3.108-.3-3.649-.71z" transform="translate(-1313.126 -2443.676) scale(14.251)"/><path style="fill-rule:evenodd;stroke:#000;stroke-width:.4;fill:#d5b807" d="M97.783 172.12c-.329-.09-.521.66-.318.85.807.49 2.463.52 2.463.52l1.822.01s1.66.11 2.73-.59c.16-.14.1-.88-.38-.78-.95.5-1.49-.47-3.04-.45-1.554.02-2.801.78-3.277.44z" transform="translate(-1313.126 -2443.676) scale(14.251)"/><path style="stroke:#000;stroke-width:.4;fill:none" d="M99.088 172.64c.339.24 3.022.37 3.532-.03" transform="translate(-1313.126 -2443.676) scale(14.251)"/><path style="fill-rule:evenodd;stroke:#000;stroke-width:.4;fill:#000" d="M99.085 188.36c.032-1.94.789-2.41 1.585-2.42.8-.01 1.64.52 1.61 2.38l-3.195.04z" transform="translate(-1313.126 -2443.676) scale(14.251)"/><path style="fill-rule:evenodd;fill:#af9705" d="M94.027 182.95c-.631-.18-.83.29-.445.55 1.518 1.26 4.99 1.49 4.99 1.49l4.068.01s3.48.17 5.53-1.62c.25-.24.21-.7-.35-.53-1.55 1.08-3.39 1.49-6.82 1.51-3.43.01-6.015-.6-6.973-1.41zM95.023 180.71c-.542-.14-.714.23-.383.44 1.305.98 4.287 1.16 4.287 1.16l3.493.01s2.99.13 4.75-1.27c.22-.19.19-.54-.3-.41-1.33.84-2.91 1.16-5.86 1.17-2.944.02-5.164-.46-5.987-1.1zM95.519 178.4c-.496-.13-.653.22-.35.42 1.194.94 3.924 1.12 3.924 1.12h3.197s2.74.13 4.35-1.22c.2-.18.17-.52-.28-.39-1.21.81-2.66 1.12-5.36 1.13-2.695.01-4.728-.45-5.481-1.06zM96.219 176.45c-.434-.11-.57.19-.306.36 1.042.81 3.425.96 3.425.96h2.792s2.39.11 3.79-1.04c.18-.16.15-.45-.24-.34-1.06.69-2.32.96-4.67.97-2.36.01-4.134-.39-4.791-.91zM96.752 174.75c-.39-.11-.514.17-.275.32.938.73 3.084.86 3.084.86l2.519.01s2.15.1 3.41-.94c.16-.14.14-.41-.21-.31-.96.63-2.09.87-4.22.87-2.118.01-3.716-.34-4.308-.81zM97.341 173.67c-.336-.07-.374.12-.169.23.808.52 2.654.54 2.654.54l2.164.01s1.85.06 2.94-.67c.14-.1.11-.28-.19-.21-.82.44-1.8.61-3.62.61-1.827.01-3.27-.18-3.779-.51zM97.74 172.8c-.295-.06-.328.1-.148.19.707.41 2.325.44 2.325.44h1.903s1.62.05 2.57-.54c.12-.08.1-.23-.16-.18-.72.36-1.58.5-3.18.5-1.6.01-2.864-.14-3.31-.41z" transform="translate(-1313.126 -2443.676) scale(14.251)"/><path style="fill-rule:evenodd;fill:#af9705" d="M99.247 172.52c-.142.02-.125.08-.036.12.344.13 1.129.16 1.129.16h.95s.78.08 1.25-.21c.06-.04.02-.08-.05-.11-.46-.04-.76-.19-1.56-.19-.8.01-1.466.23-1.683.23z" transform="translate(-1313.126 -2443.676) scale(14.251)"/></svg>